Coordinates
version=1
nRows=24
nColumns=24
inDegrees=yes

Units are S.I. units (second, meters, Newtons, ...)
Angles are in degrees.

endheader
time	pelvis_tilt	pelvis_list	pelvis_rotation	pelvis_tx	pelvis_ty	pelvis_tz	hip_flexion_r	hip_adduction_r	hip_rotation_r	knee_angle_r	ankle_angle_r	subtalar_angle_r	mtp_angle_r	hip_flexion_l	hip_adduction_l	hip_rotation_l	knee_angle_l	ankle_angle_l	subtalar_angle_l	mtp_angle_l	lumbar_extension	lumbar_bending	lumbar_rotation
      0.72483333	     -3.26721899	     -0.26555096	      0.47252777	     -0.47836983	      1.00345357	      0.32594542	     12.42590899	      3.85965661	     -0.52005859	    -19.24402882	     12.10981452	     -7.76647617	      3.54697526	     17.59070424	     -0.83154881	     -2.63864925	    -67.94500573	    -11.24226122	     -7.35991331	      6.04099655	     -9.98366654	      7.16406060	      1.11175320
      0.72900000	     -3.23940451	     -0.12315298	      0.50663769	     -0.47329010	      1.00437501	      0.32627166	     11.88052150	      3.74749222	     -0.43359966	    -18.83550468	     12.08553264	     -7.91779359	      3.51827500	     18.04162530	     -0.73607035	     -2.69977253	    -67.78237699	    -10.56408387	     -7.69581895	      5.99234362	    -10.06978825	      6.86246494	      1.51574622
      0.73316667	     -3.26345279	      0.03206112	      0.54652552	     -0.46818007	      1.00520489	      0.32651757	     11.40552216	      3.60574835	     -0.40796092	    -18.46529425	     12.11330114	     -7.94272207	      3.50875501	     18.53409923	     -0.61137947	     -2.75503127	    -67.55533418	     -9.88154743	     -8.04971091	      5.98303955	    -10.04389964	      6.64105522	      1.60303445
      0.73733333	     -3.21732031	      0.19773078	      0.56162882	     -0.46308639	      1.00612600	      0.32684101	     10.83759624	      3.46982162	     -0.30372902	    -18.05045519	     12.08359523	     -8.10281802	      3.47318099	     18.93154506	     -0.49016779	     -2.84165651	    -67.25586539	     -9.21319817	     -8.34554600	      5.91528636	    -10.15520929	      6.31228833	      1.99760466
      0.74150000	     -3.20149149	      0.35681635	      0.57655322	     -0.45797716	      1.00700158	      0.32712149	     10.30480980	      3.33355023	     -0.22645905	    -17.64044159	     12.05673644	     -8.20821248	      3.43445183	     19.34824888	     -0.36804207	     -2.92428214	    -66.89731568	     -8.53789624	     -8.64373404	      5.83571857	    -10.20312116	      6.03876528	      2.25183218
      0.74566667	     -3.18679759	      0.51782569	      0.58204632	     -0.45287132	      1.00783945	      0.32739368	      9.77738699	      3.19393121	     -0.14859892	    -17.23754380	     12.03401593	     -8.29169161	      3.37657681	     19.75245827	     -0.24372249	     -3.01850101	    -66.48306504	     -7.86346261	     -8.93472149	      5.70046029	    -10.25493113	      5.76756277	      2.51907965
      0.74983333	     -3.17592460	      0.71730396	      0.59260008	     -0.44777211	      1.00867443	      0.32764105	      9.26348171	      3.00690889	     -0.09655392	    -16.85487248	     12.02988270	     -8.36059063	      3.34271435	     20.14028066	     -0.06495977	     -3.10145545	    -65.98844202	     -7.21414300	     -9.17971850	      5.62653952	    -10.29419919	      5.45364033	      2.68142714
      0.75400000	     -3.19906607	      0.90263603	      0.59586273	     -0.44267697	      1.00941344	      0.32784707	      8.80113500	      2.82834512	     -0.06834744	    -16.50205708	     12.01123165	     -8.38144137	      3.32448904	     20.55528189	      0.10109528	     -3.19383203	    -65.45289008	     -6.53933411	     -9.45407465	      5.59234797	    -10.28613824	      5.19651542	      2.79202311
      0.75816667	     -3.11565428	      1.08980439	      0.58539282	     -0.43755044	      1.01032465	      0.32809413	      8.18402871	      2.65745886	      0.01797045	    -16.06047455	     11.98945224	     -8.47348879	      3.27644410	     20.82440846	      0.26109694	     -3.29614771	    -64.82917365	     -5.90430551	     -9.63099909	      5.47124603	    -10.42055424	      4.87338108	      3.13985550
      0.76233333	     -3.13608589	      1.28251279	      0.57879818	     -0.43246248	      1.01102522	      0.32827323	      7.72314654	      2.46774459	      0.04366801	    -15.71261766	     11.95033224	     -8.50725225	      3.24962316	     21.20046462	      0.44538653	     -3.38218867	    -64.16755665	     -5.24477335	     -9.83282929	      5.40863593	    -10.41574235	      4.61139182	      3.27177138
      0.76650000	     -3.15421438	      1.46836223	      0.57737382	     -0.42739167	      1.01168865	      0.32845942	      7.25448383	      2.28585478	      0.06938213	    -15.34852742	     11.92970049	     -8.52351936	      3.22847632	     21.56593404	      0.62120406	     -3.46572423	    -63.46175911	     -4.60399571	    -10.01185629	      5.35853239	    -10.42882986	      4.32152424	      3.40357771
      0.77066667	     -3.12604027	      1.62586458	      0.55739881	     -0.42229153	      1.01242007	      0.32866972	      6.70261846	      2.14467367	      0.17550696	    -14.90834052	     11.83632354	     -8.68963662	      3.03809188	     21.85524099	      0.76368865	     -3.54516634	    -62.68885041	     -3.97160438	    -10.08573524	      4.73642108	    -10.49611052	      4.04140294	      3.88452127
      0.77483333	     -3.12208269	      1.82631984	      0.54334693	     -0.41722208	      1.01306210	      0.32880137	      6.22689950	      1.93687559	      0.16632832	    -14.57862988	     11.82507413	     -8.65353365	      3.01680328	     22.15554325	      0.96717586	     -3.62629973	    -61.85744303	     -3.33642410	    -10.21020235	      4.67896813	    -10.52528346	      3.77671573	      3.90502879
      0.77900000	     -3.07033275	      2.01227654	      0.53569276	     -0.41212825	      1.01375345	      0.32892731	      5.67504739	      1.74723706	      0.17712167	    -14.19787167	     11.83366947	     -8.63503695	      2.97824090	     22.38179252	      1.15978172	     -3.68701238	    -60.96071654	     -2.74867104	    -10.26276201	      4.55190883	    -10.61135214	      3.50530158	      4.10058773
      0.78316667	     -3.08360146	      2.18827760	      0.52276173	     -0.40707500	      1.01431491	      0.32900747	      5.22138420	      1.56188228	      0.16913979	    -13.86779728	     11.76148120	     -8.63571403	      2.95214551	     22.66812944	      1.35552156	     -3.73062814	    -60.02256098	     -2.15170022	    -10.33459775	      4.47175461	    -10.61851381	      3.27792547	      4.22097851
      0.78733333	     -3.05853408	      2.34205511	      0.50999051	     -0.40200025	      1.01488406	      0.32912570	      4.70026686	      1.40678104	      0.19443028	    -13.48515996	     11.73787493	     -8.64773745	      2.91256869	     22.89847429	      1.51862228	     -3.77571789	    -59.04186346	     -1.58441252	    -10.33413877	      4.32546274	    -10.68242249	      3.02992068	      4.43987675
      0.79150000	     -3.06584275	      2.50515590	      0.49556332	     -0.39694763	      1.01537289	      0.32919381	      4.23794525	      1.23475020	      0.19681575	    -13.14984391	     11.68944948	     -8.64388796	      2.87238051	     23.14558724	      1.70795714	     -3.80063236	    -58.00485895	     -1.03861545	    -10.34411395	      4.16424579	    -10.70316908	      2.79895380	      4.60501450
      0.79566667	     -3.05129656	      2.66212668	      0.47991594	     -0.39189682	      1.01586025	      0.32924268	      3.75149317	      1.06703751	      0.19569649	    -12.81189946	     11.63711454	     -8.62181030	      2.83020412	     23.34982615	      1.89741484	     -3.81201330	    -56.91447433	     -0.51279470	    -10.34039389	      3.97995549	    -10.75431279	      2.58343458	      4.76032110
      0.79983333	     -3.05454062	      2.81115065	      0.46685356	     -0.38684626	      1.01628980	      0.32928199	      3.28876104	      0.90612848	      0.18607672	    -12.48276160	     11.58180046	     -8.60687155	      2.79180488	     23.55654345	      2.08261859	     -3.80985526	    -55.77512340	     -0.02416275	    -10.31146357	      3.80257299	    -10.77936792	      2.37632324	      4.89793298
      0.80400000	     -3.05690211	      2.94391708	      0.45269369	     -0.38180818	      1.01668121	      0.32929964	      2.82834493	      0.76159381	      0.18791551	    -12.15836198	     11.51713324	     -8.59113330	      2.75234837	     23.74680829	      2.25873549	     -3.78852298	    -54.59091833	      0.43812462	    -10.27110434	      3.60931784	    -10.80866037	      2.19480114	      5.03894726
      0.80816667	     -3.07558219	      3.08024352	      0.44113132	     -0.37675615	      1.01701349	      0.32929483	      2.39349103	      0.60973454	      0.16850624	    -11.85340394	     11.46458473	     -8.56704153	      2.72199766	     23.93462280	      2.44417333	     -3.75780070	    -53.35526277	      0.85260624	    -10.21895345	      3.45078886	    -10.81023857	      2.01169711	      5.15125623
      0.81233333	     -3.06025331	      3.20777103	      0.42233021	     -0.37170795	      1.01736295	      0.32928756	      1.92035018	      0.46658843	      0.16510547	    -11.54189825	     11.40271352	     -8.52595559	      2.68987165	     24.06407972	      2.62571191	     -3.70933900	    -52.06666194	      1.24114409	    -10.17516514	      3.26835351	    -10.86622010	      1.84140090	      5.27857308
      0.81650000	     -3.13047759	      3.32898501	      0.40860678	     -0.36667542	      1.01756420	      0.32924764	      1.56038549	      0.32654379	      0.14911724	    -11.27281251	     11.31465831	     -8.49489791	      2.67389054	     24.27162276	      2.80751417	     -3.64655598	    -50.73508898	      1.59482215	    -10.10993880	      3.18686820	    -10.80990609	      1.69453618	      5.34563012
      0.82066667	     -3.14895481	      3.44255440	      0.39226584	     -0.36162828	      1.01778218	      0.32921286	      1.13792036	      0.19526042	      0.14108860	    -10.99183637	     11.25195430	     -8.46249389	      2.65757973	     24.40210816	      2.98197731	     -3.57381158	    -49.35610831	      1.90809247	    -10.03623130	      3.09399058	    -10.81963498	      1.54259715	      5.44488336
